<svg xmlns="http://www.w3.org/2000/svg" viewBox="0 0 512 512" width="512" height="512">
  <defs>
    <linearGradient id="bg" x1="0%" y1="0%" x2="100%" y2="100%">
      <stop offset="0%" stop-color="#0f172a" />
      <stop offset="100%" stop-color="#020617" />
    </linearGradient>
    <linearGradient id="rose" x1="0%" y1="0%" x2="100%" y2="100%">
      <stop offset="0%" stop-color="#f43f5e" />
      <stop offset="100%" stop-color="#e11d48" />
    </linearGradient>
  </defs>
  
  <!-- Hintergrund mit abgerundeten Ecken -->
  <rect width="512" height="512" rx="115" fill="url(#bg)" />
  
  <!-- Perfekt zentriertes, sauberes Herz -->
  <g transform="translate(256, 256) scale(0.85) translate(-256, -256)">
    <path d="M256 464l-29.6-26.9C121.8 338.4 50 272.9 50 189.6 50 121.2 103.5 68 171.8 68c37.5 0 73.5 17.6 97.2 45.4C292.7 85.6 328.7 68 366.2 68 434.5 68 488 121.2 488 189.6c0 83.3-71.8 148.8-176.4 247.5L256 464z" fill="url(#rose)" />
    
    <!-- Pulslinie / Herzschlag in der Mitte -->
    <path d="M125 224h82l38-65 52 125 38-65h62" fill="none" stroke="#ffffff" stroke-width="24" stroke-linecap="round" stroke-linejoin="round" />
  </g>
</svg>